<svg width="856" height="166" viewBox="0 0 856 166" fill="none" xmlns="http://www.w3.org/2000/svg">
<path d="M91.3999 9.74002L97.354 16.78L96.4303 25.74L104.985 22.27L113.268 25.92L112.586 16.73L118.64 10.03L109.654 7.81002L105.125 0.0200195L100.236 7.84002L91.3999 9.74002Z" fill="#263C76"/>
<path d="M124.785 27.96L134.023 27.38L140.7 33.47L143.009 24.55L150.881 20.11L143.079 15.16L141.262 6.33997L134.123 12.21L125.137 11.18L128.53 19.76L124.785 27.96Z" fill="#263C76"/>
<path d="M150.359 39.22L159.204 41.96L163.251 50L168.613 42.49L177.559 41.13L172.036 33.75L173.502 24.85L164.727 27.8L156.694 23.66L156.805 32.87L150.359 39.22Z" fill="#263C76"/>
<path d="M170.641 58.91L178.071 64.39L179.245 73.3301L186.766 67.9801L195.672 69.63L192.901 60.8301L197.218 52.92L187.981 52.84L181.746 46.3L178.814 55.0401L170.641 58.91Z" fill="#263C76"/>
<path d="M183.021 83.8301L187.981 91.6201L185.842 100.37L194.798 98.0801L202.5 102.82L203.102 93.6201L210 87.8001L201.395 84.3901L197.961 76.0601L192.047 83.1501L183.021 83.8301Z" fill="#263C76"/>
<path d="M185.782 111.97L187.931 120.94L183.081 128.52L192.288 129.25L198.052 136.21L201.606 127.71L210 124.39L202.982 118.42L202.429 109.44L194.547 114.24L185.782 111.97Z" fill="#263C76"/>
<path d="M179.165 139L177.94 148.12L170.661 153.47L178.984 157.45L181.836 166L188.232 159.34L197.278 159.28L192.891 151.18L195.632 142.59L186.535 144.25L179.165 139Z" fill="#263C76"/>
<path d="M39.3493 153.35L31.9092 147.87L30.7344 138.94L23.2039 144.28L14.2979 142.66L17.0691 151.44L12.7717 159.35L22.0192 159.44L28.2443 165.96L31.1762 157.22L39.3493 153.35Z" fill="#263C76"/>
<path d="M26.9691 128.43L22.0191 120.64L24.1578 111.9L15.1915 114.17L7.49031 109.44L6.88788 118.63L0 124.46L8.59478 127.86L12.0387 136.21L17.9426 129.11L26.9691 128.43Z" fill="#263C76"/>
<path d="M24.2281 100.27L22.0693 91.32L26.939 83.72L17.7117 83L11.9684 76.03L8.41405 84.56L0 87.84L7.0184 93.83L7.57064 102.83L15.4525 98.01L24.2281 100.27Z" fill="#263C76"/>
<path d="M30.8449 73.27L32.0799 64.14L39.3694 58.81L31.0357 54.8L28.1841 46.25L21.8083 52.92L12.7617 52.96L17.1394 61.07L14.3783 69.64L23.4952 68L30.8449 73.27Z" fill="#263C76"/>
<path d="M46.8398 49.98L51.0167 41.74L59.6717 39.11L53.1051 32.6L53.2658 23.6L45.0224 27.8L36.4578 24.88L37.9237 33.97L32.4917 41.17L41.6488 42.59L46.8398 49.98Z" fill="#263C76"/>
<path d="M69.421 33.46L76.2586 27.26L85.2952 27.85L81.4898 19.45L84.8534 11.08L75.6461 12.09L68.688 6.33997L66.8003 15.35L59.1594 20.16L67.1819 24.73L69.421 33.46Z" fill="#263C76"/>
<path d="M91.3999 10.1L97.5448 16.96L96.862 25.96L105.336 22.24L113.7 25.66L112.786 16.5L118.64 9.63L109.604 7.67L104.844 0L100.175 7.95L91.3999 10.1Z" fill="#263C76"/>
<path d="M77.0018 153.16V141.6H132.998V153.16H77.0018ZM96.079 114.75L96.3501 112.27L95.6874 112.05C91.4379 110.319 87.6302 107.664 84.5423 104.28L83.7089 103.33L80.3052 102.63C62.6136 98.63 49.2495 89.72 43.707 69.36H64.7924C66.3989 74.23 68.7082 76.2 71.369 77.3L72.8952 77.8L72.5839 74.8C72.414 72.6544 72.3637 70.5011 72.4333 68.35L72.5538 66.7H137.105L137.215 68.1C137.32 70.5912 137.26 73.0866 137.035 75.57L136.764 77.73L138.169 77.29C140.85 76.19 143.19 74.22 144.746 69.35H165.831C160.259 89.71 146.915 98.61 129.233 102.62L126.02 103.32L125.558 103.86C122.591 107.218 118.938 109.908 114.845 111.75L113.168 112.37L113.439 114.8C114.532 122.35 117.061 129.623 120.889 136.23H88.7594C92.568 129.608 95.0663 122.319 96.1192 114.76L96.079 114.75ZM74.2306 95.83L73.4173 94.14C71.7927 90.5143 70.6127 86.7068 69.9031 82.8L69.7625 81.75L69.2805 81.59C66.5793 80.4634 64.2833 78.5497 62.6939 76.1L61.5794 74.1H50.4443L50.7054 74.8C55.2236 85.24 62.5131 91.41 72.1622 95.17L74.2306 95.83ZM135.258 95.83L137.266 95.13C146.925 91.36 154.254 85.18 158.743 74.8L159.014 74.1H147.939L146.814 76.1C145.238 78.557 142.942 80.4732 140.238 81.59L139.746 81.74L139.615 82.79C138.891 86.6944 137.708 90.5005 136.091 94.13L135.258 95.83Z" fill="#263C76"/>
<path d="M255.429 135.985C250.023 135.997 244.641 135.271 239.443 133.828C234.973 132.712 230.754 130.802 227 128.195L232.477 116.405C235.721 118.66 239.318 120.393 243.13 121.536C247.104 122.782 251.254 123.419 255.429 123.426C260.001 123.426 263.4 122.769 265.626 121.455C266.615 120.948 267.444 120.19 268.023 119.261C268.603 118.333 268.912 117.269 268.917 116.184C268.931 115.415 268.762 114.654 268.425 113.958C268.087 113.263 267.59 112.652 266.972 112.172C265.496 111.013 263.803 110.142 261.987 109.607C259.969 108.961 257.231 108.254 253.772 107.484C249.353 106.513 244.997 105.286 240.728 103.811C237.356 102.595 234.359 100.564 232.02 97.9099C229.618 95.2044 228.417 91.6048 228.417 87.1112C228.378 83.3095 229.525 79.5854 231.708 76.4291C234.179 73.0157 237.623 70.3771 241.617 68.8374C246.765 66.8256 252.284 65.8649 257.832 66.0153C262.192 66.0145 266.536 66.5315 270.767 67.5546C274.677 68.4649 278.417 69.9599 281.853 71.9861L276.917 83.8809C271.068 80.5004 264.409 78.6669 257.603 78.5632C253.087 78.5632 249.752 79.2707 247.598 80.6856C246.605 81.2682 245.785 82.0917 245.218 83.0751C244.652 84.0585 244.359 85.1681 244.367 86.2949C244.361 87.424 244.715 88.5274 245.379 89.4541C246.043 90.3809 246.986 91.0859 248.079 91.4727C251.753 92.9539 255.572 94.0713 259.477 94.8079C263.954 95.7707 268.366 96.9975 272.689 98.4813C276.046 99.6909 279.039 101.695 281.397 104.312C283.799 106.955 285 110.532 285 115.041C285.02 118.816 283.851 122.507 281.649 125.618C279.137 129.035 275.663 131.675 271.644 133.221C266.485 135.192 260.971 136.132 255.429 135.985Z" fill="black"/>
<path d="M327.443 66.0109C333.011 65.8798 338.543 66.9326 343.67 69.099C348.057 70.9193 351.779 74.0318 354.337 78.0187C356.896 82.0056 358.168 86.6762 357.982 91.4034C358.072 96.1586 356.758 100.835 354.201 104.854C351.625 108.773 347.933 111.839 343.597 113.659C338.462 115.793 332.933 116.829 327.37 116.699H313.276V136H297V66.035L327.443 66.0109ZM326.51 103.502C331.357 103.502 335.074 102.453 337.659 100.354C338.946 99.2547 339.96 97.8732 340.62 96.318C341.281 94.7628 341.569 93.0764 341.464 91.3913C341.567 89.6941 341.277 87.996 340.618 86.4276C339.958 84.8592 338.946 83.4623 337.659 82.3441C335.114 80.2451 331.393 79.1836 326.51 79.1836H313.276V103.49L326.51 103.502Z" fill="black"/>
<path d="M404.402 135.994C397.548 136.106 390.774 134.558 384.701 131.491C379.018 128.606 374.266 124.271 370.962 118.96C367.711 113.499 366 107.312 366 101.015C366 94.7182 367.711 88.5312 370.962 83.0707C374.266 77.7593 379.018 73.4248 384.701 70.5399C390.796 67.5554 397.536 66 404.372 66C411.207 66 417.947 67.5554 424.043 70.5399C429.769 73.485 434.558 77.8764 437.897 83.2443C441.236 88.6123 443 94.7549 443 101.015C443 107.276 441.236 113.418 437.897 118.786C434.558 124.154 429.769 128.546 424.043 131.491C417.991 134.558 411.237 136.107 404.402 135.994V135.994ZM404.402 122.658C408.32 122.711 412.183 121.765 415.601 119.917C418.912 118.106 421.638 115.444 423.474 112.228C425.351 108.768 426.331 104.92 426.331 101.015C426.331 97.1101 425.351 93.263 423.474 89.8029C421.638 86.5862 418.912 83.9244 415.601 82.114C412.154 80.3086 408.294 79.3629 404.372 79.3629C400.449 79.3629 396.589 80.3086 393.142 82.114C389.827 83.92 387.1 86.5829 385.269 89.8029C383.392 93.263 382.412 97.1101 382.412 101.015C382.412 104.92 383.392 108.768 385.269 112.228C387.1 115.448 389.827 118.111 393.142 119.917C396.579 121.772 400.464 122.714 404.402 122.647V122.658Z" fill="black"/>
<path d="M499.615 136L486.115 116.488H471.203V136H455V66.0132H485.294C490.852 65.8686 496.376 66.9136 501.497 69.0781C505.864 70.899 509.57 74.0125 512.117 78.0006C514.664 81.9888 515.93 86.6608 515.745 91.3894C515.917 96.1074 514.622 100.762 512.037 104.713C509.453 108.664 505.707 111.715 501.316 113.447L517 135.952L499.615 136ZM499.265 91.3532C499.368 89.6543 499.078 87.9545 498.419 86.3853C497.76 84.8161 496.749 83.4194 495.465 82.3032C492.943 80.2036 489.239 79.1417 484.365 79.1417H471.215V103.553H484.365C489.231 103.553 492.931 102.487 495.465 100.355C496.739 99.2459 497.743 97.8609 498.402 96.3052C499.06 94.7496 499.355 93.0643 499.265 91.3774V91.3532Z" fill="black"/>
<path d="M542.404 79.1966H520V66H581V79.1966H558.596V136H542.404V79.1966Z" fill="black"/>
<path d="M632.919 120.998H600.638L594.434 136H578L608.975 66H624.857L656 136H639.111L632.919 120.998ZM627.876 108.688L616.784 81.8586L605.765 108.676L627.876 108.688Z" fill="black"/>
<path d="M727.592 136L727.494 93.9976L706.607 128.606H699.197L678.42 94.9023V136H663V66H676.586L703.159 109.498L729.304 66H742.792L743 136H727.592Z" fill="black"/>
<path d="M776 66H760V136H776V66Z" fill="black"/>
<path d="M837.24 136L820.294 111.706L803.639 136H785L810.969 100.403L786.306 66H804.752L820.887 88.7021L836.744 66H854.282L829.826 99.7998L856 136H837.24Z" fill="black"/>
</svg>
