<svg xmlns="http://www.w3.org/2000/svg" width="165" height="26"><title>Logo 2</title><desc>Created with Sketch.</desc><g fill="none"><g fill-rule="nonzero"><g><g><g><g><g><g><g fill="#000"><g><path id="Shape" d="M53.75 11.45c-.72-.45-1.47-.8-2.23-1.05s-1.43-.37-2-.37c-.65 0-1.17.12-1.54.37-.38.25-.57.6-.57 1.03 0 .4.14.73.4 1 .27.26.6.48 1 .65.4.17.93.36 1.62.56.96.3 1.74.58 2.35.87.62.3 1.14.72 1.57 1.28.43.56.64 1.3.64 2.2 0 .9-.23 1.65-.7 2.3-.46.65-1.1 1.15-1.9 1.5-.83.33-1.76.5-2.8.5-1.1 0-2.2-.2-3.24-.62-1.05-.42-1.96-.98-2.74-1.67l1.13-2.35c.7.67 1.5 1.2 2.4 1.58.9.38 1.72.57 2.48.57.77 0 1.36-.15 1.8-.44.42-.3.64-.7.64-1.2 0-.4-.13-.75-.4-1.02-.26-.26-.6-.48-1-.64-.4-.17-.95-.35-1.65-.56-.97-.3-1.75-.57-2.35-.84-.6-.27-1.13-.7-1.56-1.24-.44-.56-.66-1.28-.66-2.2 0-.82.22-1.55.66-2.17.44-.64 1.06-1.12 1.86-1.46.8-.34 1.72-.5 2.77-.5.92 0 1.82.12 2.72.4.9.27 1.7.64 2.4 1.1l-1.1 2.4zM63.34 7.75c1.78 0 3.15.43 4.13 1.3.98.86 1.46 2.08 1.46 3.65 0 1.64-.48 2.92-1.46 3.83-.98.9-2.35 1.36-4.13 1.36h-3.1v4.22h-2.7V7.75h5.8zm-.14 7.72c1.02 0 1.8-.23 2.35-.68.55-.46.82-1.13.82-2.02 0-.87-.27-1.53-.82-1.97-.54-.43-1.33-.65-2.35-.65h-2.95v5.32h2.95zM77.6 7.57c1.4 0 2.67.32 3.82.96 1.15.65 2.05 1.53 2.7 2.65.67 1.12 1 2.37 1 3.74 0 1.36-.33 2.6-1 3.74-.65 1.13-1.55 2.02-2.7 2.68-1.15.66-2.43 1-3.83 1s-2.7-.34-3.84-1c-1.15-.66-2.05-1.55-2.7-2.68-.67-1.13-1-2.38-1-3.74 0-1.37.33-2.62 1-3.74.65-1.12 1.55-2 2.7-2.65 1.15-.64 2.43-.96 3.83-.96zm.03 2.46c-.86 0-1.66.22-2.4.65-.74.43-1.33 1.02-1.76 1.76-.43.75-.64 1.57-.64 2.48 0 .9.22 1.73.65 2.48.44.75 1.02 1.35 1.76 1.78.73.44 1.53.66 2.4.66.84 0 1.63-.22 2.35-.66.72-.43 1.3-1.03 1.72-1.78.42-.75.63-1.58.63-2.48 0-.9-.2-1.73-.63-2.48-.43-.74-1-1.33-1.73-1.76-.73-.43-1.52-.65-2.37-.65zM96.35 22.12l-2.45-4.25c-.1.02-.27.02-.5.02h-3.2v4.22h-2.7V7.75h5.9c1.83 0 3.24.43 4.24 1.3 1 .86 1.5 2.08 1.5 3.65 0 1.12-.25 2.08-.72 2.87-.48.8-1.18 1.4-2.1 1.8l3.12 4.75h-3.1zm-6.14-6.65h3.2c1.02 0 1.8-.23 2.34-.68.54-.46.8-1.13.8-2.02 0-.87-.26-1.53-.8-1.97-.54-.43-1.32-.65-2.34-.65h-3.2v5.32zM100.53 7.75h11.53v2.44h-4.4V22.1h-2.73V10.2h-4.4zM123 22.12l-1.25-3.04h-6.9l-1.26 3.04h-2.82l6.2-14.37h2.8l6.12 14.37H123zm-7.2-5.4h4.98l-2.47-6.03-2.5 6.02zM127.62 7.75h3.1L135.4 17l4.64-9.25h3.1v14.37h-2.5v-10.3l-4.4 8.82h-1.73l-4.42-8.82v10.3h-2.46zM146.6 7.75h2.7v14.37h-2.7zM151.63 7.75h3.17l3.25 4.72 3.25-4.72h3.2l-4.73 6.88 5.14 7.5h-3.24l-3.6-5.14-3.6 5.12h-3.15l5.1-7.37z"/></g></g><path fill="#3929FF" d="M10.06 25.7v-3.38h16.08v3.4H10.06zm5.5-11.25l.07-.72-.2-.07c-1.16-.47-2.25-1.24-3.2-2.28L12 11.1l-.98-.2C5.92 9.7 2.1 7.1.5 1.13h6.05c.46 1.43 1.12 2 1.9 2.33l.43.14-.1-.86c-.04-.64-.06-1.26-.04-1.9l.04-.47H27.3l.04.4c.03.74 0 1.48-.05 2.2l-.1.63.4-.13c.78-.32 1.44-.9 1.9-2.33h6.05c-1.6 5.97-5.43 8.58-10.52 9.75l-.92.2-.12.15c-.9 1-1.93 1.8-3.08 2.3l-.48.2.08.7c.32 2.25 1.05 4.34 2.14 6.3H13.4c1.1-1.96 1.84-4.05 2.15-6.3zM9.25 8.9l-.23-.48c-.43-1-.8-2.1-1-3.33l-.05-.32-.14-.04c-.7-.3-1.35-.77-1.9-1.6l-.3-.6h-3.2l.07.2C3.8 5.8 5.9 7.62 8.68 8.72l.6.2zm17.53 0l.58-.2c2.77-1.1 4.88-2.9 6.17-5.95l.07-.2h-3.2l-.32.58c-.54.84-1.2 1.3-1.88 1.6l-.15.05-.03.3c-.22 1.23-.6 2.34-1.02 3.34l-.23.5z"/></g></g></g></g></g></g></g></g></svg>